<svg xmlns="http://www.w3.org/2000/svg" viewBox="0 0 619 196" preserveAspectRatio="xMidYMid meet" class="css-bojz8t" id="bfbgegfa"><defs id="SvgjsDefs1011"/><g id="SvgjsG1012" featurekey="root" fill="#ffffff"/><g id="SvgjsG1013" featurekey="container1" fill="#4064c8" transform="matrix(1.25,0,0,1.25,0,0)"><rect xmlns="http://www.w3.org/2000/svg" width="495" rx="10" ry="10" height="157"/></g><g id="SvgjsG1014" featurekey="symbol1" fill="#ffffff" transform="matrix(0.003976143141153081,0,0,0.003976143141153081,92,49.99950298210736)"><defs xmlns="http://www.w3.org/2000/svg"/><g xmlns="http://www.w3.org/2000/svg"><path d="M15200 12295c0,0 0,-1028 -182,-2438 -181,-1409 -2905,-1977 -3921,-2372 -689,-267 -705,-860 -705,-860 -949,1167 -2220,1175 -3186,-8 0,0 79,566 -698,868 -1016,395 -3739,963 -3921,2372 -181,1410 -181,2438 -181,2438l1769 0 0 -399c0,-151 124,-275 275,-275l0 0c152,0 276,124 276,275l0 399 8153 0 0 -399c0,-151 124,-275 276,-275l0 0c151,0 275,124 275,275l0 399 1770 0zm-7232 9006l1669 0 0 411 -1669 0 0 -411zm-725 -1144l3119 0 0 412 -3119 0 0 -412zm1560 -2814c624,0 1131,506 1131,1131 0,624 -507,1131 -1131,1131 -625,0 -1131,-507 -1131,-1131 0,-625 506,-1131 1131,-1131zm-4344 -1989l8687 0 0 9031 -8687 0 0 -9031zm-4459 -2334l8803 0 8802 0 -645 4099c-59,375 -377,646 -756,646l-1948 0 0 -2411c0,-611 -499,-1109 -1110,-1109l-8687 0c-611,0 -1109,498 -1109,1109l0 2411 -1948 0c-380,0 -697,-271 -756,-646l-646 -4099zm6131 -10285c0,1259 235,1960 982,3174 584,748 1142,1088 1690,1043 547,45 1105,-295 1689,-1043 747,-1214 982,-1915 982,-3174 0,-3648 -5343,-3645 -5343,0z" style="fill: #fff;"/></g></g><g id="SvgjsG1015" featurekey="text1" fill="#ffffff" transform="matrix(4.178272802909795,0,0,4.178272802909795,179.49303671672527,26.802235582517)"><path d="M6.4 15.4 l-2.2 0 l0 5.82 c0 0.56 0.2 1 0.84 1 c0.54 0 0.92 -0.1 1.36 -0.28 l0 1.82 c-0.44 0.22 -1.02 0.36 -1.92 0.36 c-1.3 0 -2.44 -0.52 -2.44 -2.82 l0 -5.9 l-1.44 0 l0 -1.8 l1.44 0 l0 -2.44 l2.16 0 l0 2.44 l2.2 0 l0 1.8 z M13.18 13.42 c2.36 0 5.56 1.8 5.06 6.16 l-8.28 0 c0.32 1.86 1.8 2.78 3.48 2.78 c1.38 0 2.12 -0.36 2.88 -0.96 l1.22 1.16 c-0.92 1.04 -2.24 1.64 -4.16 1.64 c-2.64 0 -5.58 -1.8 -5.58 -5.38 c0 -3.6 3.02 -5.4 5.38 -5.4 z M13.18 15.28 c-1.34 0 -2.84 0.9 -3.2 2.72 l6.36 0 c-0.24 -1.82 -1.82 -2.72 -3.16 -2.72 z M25.08 13.42 c1.88 0 3.5 0.84 4.44 2.52 l-1.68 0.76 c-0.62 -0.84 -1.46 -1.36 -2.74 -1.36 c-1.54 0 -3.3 1.16 -3.3 3.48 c0 2.3 1.76 3.44 3.3 3.44 c1.28 0 2.12 -0.5 2.74 -1.34 l1.7 0.76 c-0.96 1.68 -2.56 2.5 -4.46 2.5 c-2.36 0 -5.38 -1.74 -5.38 -5.36 c0 -3.6 3.02 -5.4 5.38 -5.4 z M36.96 13.44 c2 0 3.96 1.3 3.96 4.54 l0 6.02 l-2.16 0 l0 -5.9 c0 -1.98 -0.94 -2.76 -2.28 -2.76 c-1.72 0 -2.84 1.6 -3.08 2.62 l0 6.04 l-2.16 0 l0 -14.14 l2.16 0 l0 5.94 c0.2 -0.64 1.4 -2.36 3.56 -2.36 z M48.22 15.4 l-2.2 0 l0 5.82 c0 0.56 0.2 1 0.84 1 c0.54 0 0.92 -0.1 1.36 -0.28 l0 1.82 c-0.44 0.22 -1.02 0.36 -1.92 0.36 c-1.3 0 -2.44 -0.52 -2.44 -2.82 l0 -5.9 l-1.44 0 l0 -1.8 l1.44 0 l0 -2.44 l2.16 0 l0 2.44 l2.2 0 l0 1.8 z M54.800000000000004 13.42 c1.88 0 3.12 1.12 3.38 1.8 l0 -1.62 l2.16 0 l0 10.4 l-2.16 0 l0 -1.72 c-0.26 0.84 -1.5 1.92 -3.38 1.92 c-2.36 0 -5.18 -1.76 -5.18 -5.4 c0 -3.58 2.82 -5.38 5.18 -5.38 z M55.08 15.34 c-1.62 0 -3.36 1.16 -3.36 3.46 c0 2.32 1.74 3.48 3.36 3.48 s3.2 -1.14 3.2 -3.48 c0 -2.32 -1.58 -3.46 -3.2 -3.46 z M64.7 9.86 l0 14.14 l-2.16 0 l0 -14.14 l2.16 0 z M74.32 24 l-4.08 -4.44 l-1.18 1.22 l0 3.22 l-2.16 0 l0 -3.54 l0 -10.6 l2.16 0 l0 8.28 l4.24 -4.54 l2.6 0 l-4.32 4.54 l5.26 5.86 l-2.52 0 z M83.36 16.38 c-0.36 -0.8 -0.94 -1.22 -1.72 -1.22 c-0.8 0 -1.4 0.48 -1.4 1.14 c0 0.6 0.34 1.02 1.18 1.32 l1.14 0.4 c1.64 0.58 3 1.2 3 3.1 c0 2.02 -1.98 3.1 -3.9 3.1 c-1.84 0 -3.52 -1.06 -3.92 -2.84 l1.72 -0.52 c0.3 0.94 1.08 1.62 2.2 1.62 c0.92 0 1.76 -0.54 1.76 -1.36 c0 -0.66 -0.46 -1.06 -1.34 -1.38 l-1.18 -0.42 c-1.92 -0.68 -2.76 -1.72 -2.76 -3.04 c0 -1.74 1.56 -2.86 3.42 -2.86 c1.8 0 3.04 0.98 3.6 2.46 z"/></g></svg>